<?xml version="1.0" encoding="utf-8"?><svg xmlns="http://www.w3.org/2000/svg" xmlns:xlink="http://www.w3.org/1999/xlink"><symbol viewBox="0 0 329.269 329" id="close" xmlns="http://www.w3.org/2000/svg"><path d="M194.8 164.77L323.013 36.555c8.343-8.34 8.343-21.825 0-30.164-8.34-8.34-21.825-8.34-30.164 0L164.633 134.605 36.422 6.391c-8.344-8.34-21.824-8.34-30.164 0-8.344 8.34-8.344 21.824 0 30.164l128.21 128.215L6.259 292.984c-8.344 8.34-8.344 21.825 0 30.164a21.266 21.266 0 0015.082 6.25c5.46 0 10.922-2.09 15.082-6.25l128.21-128.214 128.216 128.214a21.273 21.273 0 0015.082 6.25c5.46 0 10.922-2.09 15.082-6.25 8.343-8.34 8.343-21.824 0-30.164zm0 0"/></symbol><symbol viewBox="0 0 512 512" id="left-arrow" xmlns="http://www.w3.org/2000/svg"><path d="M492 236H68.442l70.164-69.824c7.829-7.792 7.859-20.455.067-28.284-7.792-7.83-20.456-7.859-28.285-.068l-104.504 104-.018.019c-7.809 7.792-7.834 20.496-.002 28.314l.018.019 104.504 104c7.828 7.79 20.492 7.763 28.285-.068 7.792-7.829 7.762-20.492-.067-28.284L68.442 276H492c11.046 0 20-8.954 20-20s-8.954-20-20-20z"/></symbol><symbol viewBox="0 0 424.98 424.98" id="money-bag-with-dollar-symbol" xmlns="http://www.w3.org/2000/svg"><path d="M241.395 282.304c-1.587-1.738-3.595-3.038-5.67-4.121-4.518-2.356-9.459-3.785-14.365-5.075v38.016c7.963-.9 17.105-3.79 21.286-11.224 1.996-3.551 2.393-7.914 1.58-11.867-.441-2.142-1.352-4.108-2.831-5.729z"/><path d="M242.604 299.973l.042-.073a4.74 4.74 0 00-.042.073zm-58.595-78.441c-1.369 1.999-2.228 4.27-2.465 6.684-.237 2.419-.104 5.11.815 7.387.875 2.17 2.708 3.772 4.6 5.062 2.123 1.444 4.458 2.572 6.836 3.528 1.995.803 4.239 1.571 6.658 2.313v-34.4c-6.111 1.304-12.788 4.088-16.444 9.426zm58.795 78.087c-.05.089-.104.182-.157.28.062-.114.111-.198.157-.28zm.2-.356c.013-.024.015-.026 0 0z"/><path d="M234.753 92.469c32.329-27.158 53.931-88.341 40.637-91.017-17.664-3.557-56.022 12.04-74.562 14.788-26.296 3.175-54.936-28.515-71.012-10.851-13.071 14.362 9.371 66.592 44.482 89.346-104.752 51.484-251.988 309.938 4.873 328.691 355.411 25.949 177.444-280.787 55.582-330.957zm30.523 203.829c-1.093 10.076-6.433 19.188-14.415 25.374-8.428 6.532-18.999 9.57-29.502 10.421v11.133c0 2.979-1.301 5.86-3.531 7.832-3.065 2.712-7.569 3.381-11.289 1.667-3.673-1.69-6.086-5.457-6.086-9.499v-12.168a68.538 68.538 0 01-5.356-1.234c-9.816-2.697-18.921-7.954-25.572-15.732-3.313-3.877-6.014-8.276-7.882-13.025a47.162 47.162 0 01-1.304-3.783c-.345-1.157-.701-2.333-.824-3.539a10.46 10.46 0 011.137-5.889c1.938-3.707 6.022-5.946 10.192-5.574 4.104.364 7.701 3.212 8.993 7.124.398 1.205.668 2.44 1.115 3.632a23.292 23.292 0 001.607 3.431 26.647 26.647 0 004.59 5.875c3.694 3.559 8.399 5.872 13.304 7.248V268.23c-9.591-2.483-19.491-5.69-27.411-11.848-3.849-2.994-7.115-6.714-9.254-11.117-2.257-4.647-3.192-9.824-3.23-14.966-.039-5.221.953-10.396 3.131-15.153 2.04-4.454 4.977-8.453 8.578-11.768 7.7-7.087 17.928-11.04 28.187-12.492v-11.557c0-2.978 1.301-5.86 3.531-7.832 3.066-2.711 7.568-3.381 11.289-1.667 3.672 1.691 6.086 5.457 6.086 9.499v11.494c1.367.172 2.73.378 4.086.624 10.074 1.823 19.927 5.983 27.294 13.246a39.888 39.888 0 018.356 12.009 38.31 38.31 0 011.477 3.824c.396 1.213.794 2.462.983 3.728a10.467 10.467 0 01-.871 5.958c-1.772 3.788-5.746 6.2-9.927 6.021-4.108-.179-7.83-2.854-9.301-6.694-.438-1.142-.657-2.351-1.104-3.49a18.419 18.419 0 00-1.708-3.292c-1.308-2.02-3.003-3.752-4.938-5.179-4.19-3.094-9.272-4.706-14.35-5.607v39.582c6.035 1.445 12.075 3.021 17.857 5.301 8.739 3.446 17.02 8.73 21.79 17.062-.74-1.298-1.46-2.563.025.043 1.458 2.56.762 1.34.03.057 3.795 6.688 5.042 14.685 4.217 22.282z"/><path d="M242.493 300.169l-.156.278c.036-.063.09-.158.156-.278z"/></symbol><symbol viewBox="0 0 24 24" id="parcel" xmlns="http://www.w3.org/2000/svg"><path d="M16.12 1.929L5.229 7.505.9 5.375 11.599.092a.877.877 0 01.78 0zm6.968 3.446l-11.082 5.49-4.15-2.045-.6-.305L18.159 2.94l.6.304zm-11.97 7.072L11.106 24 .492 18.461A.927.927 0 010 17.645V6.957l4.498 2.216v3.896c0 .499.408.913.9.913s.9-.414.9-.913v-2.995l.6.292zm12.87-5.478l-11.07 5.466-.012 11.553L24 18.195z"/></symbol><symbol viewBox="0 0 512 512" id="pin" xmlns="http://www.w3.org/2000/svg"><path d="M256 0C161.896 0 85.333 76.563 85.333 170.667c0 28.25 7.063 56.26 20.49 81.104L246.667 506.5c1.875 3.396 5.448 5.5 9.333 5.5s7.458-2.104 9.333-5.5l140.896-254.813c13.375-24.76 20.438-52.771 20.438-81.021C426.667 76.563 350.104 0 256 0zm0 256c-47.052 0-85.333-38.281-85.333-85.333S208.948 85.334 256 85.334s85.333 38.281 85.333 85.333S303.052 256 256 256z"/></symbol><symbol viewBox="0 0 512 512" id="reading-book" xmlns="http://www.w3.org/2000/svg"><circle cx="256" cy="85" r="85"/><path d="M318.459 181.515C300.462 193.202 279.011 200 256 200s-44.462-6.798-62.459-18.485a174.83 174.83 0 00-54.38 33.216L256 258.546l116.839-43.815a174.81 174.81 0 00-54.38-33.216zM436 310h-10c-8.284 0-15 6.716-15 15v40c0 8.284 6.716 15 15 15h10c19.33 0 35-15.67 35-35s-15.67-35-35-35zM87.456 234.276A15 15 0 0081 246.605V280h5c24.813 0 45 20.187 45 45v40c0 24.813-20.187 45-45 45h-5v31.605a15 15 0 009.733 14.045L241 512V284.96l-139.733-52.4a14.99 14.99 0 00-13.811 1.716z"/><path d="M381 365v-40c0-24.813 20.187-45 45-45h5v-33.395a15 15 0 00-20.267-14.045L271 284.96V512l150.267-56.35A15 15 0 00431 441.605V410h-5c-24.813 0-45-20.187-45-45zm-280 0v-40c0-8.284-6.716-15-15-15H76c-19.33 0-35 15.67-35 35s15.67 35 35 35h10c8.284 0 15-6.716 15-15z"/></symbol><symbol viewBox="0 0 512 512" id="right-arrow" xmlns="http://www.w3.org/2000/svg"><path d="M506.134 241.843l-.018-.019-104.504-104c-7.829-7.791-20.492-7.762-28.285.068-7.792 7.829-7.762 20.492.067 28.284L443.558 236H20c-11.046 0-20 8.954-20 20s8.954 20 20 20h423.557l-70.162 69.824c-7.829 7.792-7.859 20.455-.067 28.284 7.793 7.831 20.457 7.858 28.285.068l104.504-104 .018-.019c7.833-7.818 7.808-20.522-.001-28.314z"/></symbol></svg>